<?xml version="1.0" standalone="no"?>
<!DOCTYPE svg PUBLIC "-//W3C//DTD SVG 20010904//EN"
 "http://www.w3.org/TR/2001/REC-SVG-20010904/DTD/svg10.dtd">
<svg version="1.0" xmlns="http://www.w3.org/2000/svg"
 width="752.000000pt" height="719.000000pt" viewBox="0 0 752.000000 719.000000"
 preserveAspectRatio="xMidYMid meet">

<g transform="translate(0.000000,719.000000) scale(0.100000,-0.100000)"
fill="#000000" stroke="none">
<path d="M0 3595 l0 -3595 3760 0 3760 0 0 3595 0 3595 -3760 0 -3760 0 0
-3595z m3734 3239 c3 -26 6 -64 6 -85 0 -33 -3 -39 -22 -40 -13 -1 -43 -3 -68
-5 -25 -2 -65 -5 -90 -6 l-45 -3 2 -55 c1 -30 7 -218 13 -418 7 -200 10 -365
8 -367 -2 -2 -43 -5 -92 -7 l-88 -3 -4 95 c-2 52 -6 138 -9 190 -3 52 -8 171
-11 264 -3 93 -9 196 -12 230 l-7 61 -116 -3 -116 -3 -7 47 c-6 46 -8 133 -3
135 1 0 81 3 177 6 96 3 177 7 178 8 2 2 70 4 151 4 l148 1 7 -46z m451 24 c1
-2 -1 -32 -6 -68 -11 -83 -25 -296 -21 -309 2 -6 25 -11 52 -11 29 0 50 -5 52
-12 4 -10 19 -10 66 -2 33 5 59 7 56 3 -4 -7 19 -19 37 -19 5 0 9 8 9 18 0 10
4 22 9 28 5 5 14 79 20 164 6 85 15 158 20 163 9 9 171 -9 181 -20 4 -5 -1
-80 -12 -168 -10 -88 -18 -185 -18 -215 0 -30 -2 -80 -5 -110 -18 -174 -38
-412 -39 -455 -1 -44 -4 -50 -21 -48 -11 0 -55 4 -99 8 l-79 7 7 66 c4 37 9
127 12 201 3 74 7 138 10 143 3 4 3 16 0 26 -5 15 -19 18 -84 19 -43 1 -91 7
-106 13 -15 5 -38 10 -51 10 -20 0 -24 -6 -28 -47 -3 -27 -10 -95 -17 -153 -6
-58 -9 -133 -6 -166 8 -83 1 -88 -107 -79 l-84 7 6 141 c3 78 6 188 5 245 0
56 3 102 8 102 5 0 8 46 8 103 -1 56 1 109 4 117 6 14 10 97 15 268 l1 43 101
-5 c56 -3 102 -6 104 -8z m-1506 -65 c28 -9 69 -32 91 -51 76 -64 132 -222 80
-222 -11 0 -20 -4 -20 -10 0 -5 -6 -7 -13 -4 -7 2 -35 -2 -62 -10 -27 -9 -50
-14 -51 -13 -1 1 -8 24 -16 52 -17 63 -60 95 -126 95 -49 0 -108 -29 -116 -58
-3 -9 -6 -55 -7 -102 -1 -77 10 -154 51 -345 5 -27 13 -65 15 -83 11 -70 47
-114 108 -130 47 -13 96 0 128 34 19 21 25 39 29 97 l5 72 33 3 c17 2 32 7 32
11 0 4 23 7 51 7 65 -2 73 -16 66 -112 -7 -91 -32 -148 -89 -200 -43 -39 -137
-84 -178 -84 -10 0 -22 -4 -25 -10 -8 -13 -82 -13 -91 1 -3 6 -17 8 -30 5 -13
-4 -24 -2 -24 3 0 5 -15 15 -32 22 -48 20 -106 76 -132 128 -23 46 -65 198
-70 256 -2 16 -8 31 -14 33 -9 3 -9 9 -1 24 8 15 8 32 0 62 -46 181 -51 275
-17 350 68 149 263 232 425 179z m2671 -114 c58 -11 111 -24 118 -28 9 -5 14
-66 18 -241 3 -128 7 -237 9 -241 3 -4 7 -85 10 -180 2 -96 7 -219 11 -273 6
-95 6 -99 -12 -92 -21 8 -114 26 -146 29 -26 2 -40 39 -37 97 1 25 2 62 1 82
-2 35 -5 38 -39 44 -21 4 -47 12 -58 19 -11 7 -47 18 -80 24 -33 7 -70 17 -82
21 -20 8 -26 0 -72 -91 -28 -54 -51 -108 -51 -119 0 -21 -15 -27 -25 -10 -4 6
-11 8 -16 4 -5 -3 -16 0 -24 6 -8 6 -19 9 -24 6 -5 -4 -12 -2 -16 4 -3 5 -26
10 -51 10 -33 0 -44 4 -44 16 0 17 62 143 269 549 210 410 202 396 220 391 9
-3 63 -15 121 -27z m-3507 -87 c23 -11 57 -34 76 -53 33 -33 91 -143 91 -172
0 -15 -153 -63 -169 -53 -5 3 -11 18 -14 33 -4 16 -17 41 -30 57 -19 23 -33
30 -75 34 -42 4 -58 0 -95 -21 -77 -45 -76 -86 2 -382 44 -166 66 -219 112
-260 44 -40 71 -43 142 -19 61 20 79 53 75 131 l-3 57 78 19 c48 12 82 16 88
10 18 -18 22 -155 5 -202 -47 -130 -169 -204 -330 -202 -89 1 -141 20 -199 71
-52 45 -87 126 -147 335 -90 314 -96 360 -55 441 82 165 290 246 448 176z
m4378 -116 c66 -15 160 -66 196 -104 44 -49 63 -107 63 -191 0 -102 -22 -167
-45 -131 -3 5 -37 19 -75 31 l-69 23 5 60 c6 74 -7 102 -61 133 -94 53 -175 7
-214 -122 -12 -38 -25 -79 -31 -90 -5 -11 -28 -81 -51 -155 -63 -208 -58 -270
28 -306 76 -32 146 -6 182 69 l22 45 72 -24 c39 -13 75 -28 80 -33 4 -4 -2
-34 -15 -67 -30 -76 -100 -148 -159 -164 -53 -15 -168 -20 -189 -9 -8 4 -44
21 -80 38 -36 16 -82 47 -102 68 -39 40 -78 137 -78 193 0 33 30 159 61 255
27 84 50 185 44 195 -3 5 -2 10 3 12 4 1 22 34 40 71 56 118 118 178 210 203
61 16 95 17 163 0z m-5171 -79 c0 -2 20 -62 45 -133 25 -71 62 -176 81 -234
20 -58 43 -116 50 -130 7 -14 20 -47 28 -75 8 -27 40 -122 71 -210 32 -88 58
-166 58 -173 2 -11 -137 -72 -164 -72 -3 0 -14 28 -24 63 -9 34 -53 158 -96
275 -43 116 -79 216 -79 222 0 5 -34 97 -75 205 -41 107 -75 197 -75 199 0 2
26 14 58 26 31 12 66 26 77 30 21 9 45 12 45 7z m-365 -204 c35 -78 42 -113
22 -113 -9 0 -68 -25 -132 -55 -63 -30 -118 -55 -122 -55 -11 0 -73 -44 -73
-52 0 -20 94 -208 104 -208 6 0 54 19 106 41 161 69 170 72 175 67 8 -7 57
-149 53 -152 -1 -1 -34 -16 -73 -31 -99 -41 -167 -78 -178 -95 -6 -11 -3 -30
11 -60 11 -25 39 -87 62 -139 23 -52 51 -109 62 -127 11 -19 18 -40 15 -47 -4
-12 -157 -83 -161 -75 -1 2 -17 39 -36 83 -18 44 -59 134 -91 200 -31 66 -91
199 -134 295 -43 96 -95 210 -116 252 -42 83 -47 108 -25 108 8 0 65 24 127
53 63 30 166 75 229 102 63 27 119 53 125 57 17 15 23 8 50 -49z m6225 15 c85
-36 83 -30 45 -111 -93 -201 -125 -279 -120 -288 10 -16 43 -1 139 65 210 143
259 176 270 178 18 3 168 -74 159 -83 -9 -8 -268 -183 -346 -233 -27 -18 -50
-41 -54 -55 -6 -23 13 -536 23 -613 l4 -38 -57 26 c-32 14 -74 32 -94 40 l-37
15 -7 201 c-4 110 -11 212 -14 226 -8 29 -53 47 -80 32 -16 -8 -52 -76 -126
-237 -21 -46 -43 -83 -49 -83 -29 0 -161 59 -164 73 -2 9 35 94 81 189 97 197
197 408 197 414 0 4 83 192 106 238 8 16 14 34 14 41 0 18 24 36 40 31 8 -2
40 -15 70 -28z m-3130 -749 c30 -12 73 -30 95 -40 22 -10 76 -30 120 -44 44
-15 91 -33 105 -40 14 -7 88 -34 165 -59 77 -26 148 -51 157 -56 9 -5 35 -13
57 -16 23 -4 38 -10 35 -15 -5 -8 24 -14 54 -10 6 1 12 -2 12 -7 0 -5 39 -22
88 -37 48 -15 96 -32 107 -37 31 -13 181 -58 277 -84 49 -13 96 -28 107 -33
10 -6 36 -15 57 -20 128 -31 216 -54 267 -72 32 -11 62 -17 67 -14 5 3 17 1
27 -4 15 -8 106 -30 398 -96 33 -8 103 -21 155 -30 52 -9 113 -21 134 -26 l39
-11 -8 -341 c-4 -188 -9 -394 -11 -457 -1 -63 -5 -123 -9 -133 -4 -9 -4 -37
-1 -62 5 -30 4 -45 -4 -45 -6 0 -10 -17 -9 -42 0 -24 -2 -61 -6 -83 -3 -22
-15 -96 -26 -165 -28 -181 -97 -522 -124 -615 -36 -125 -125 -397 -141 -432
-8 -17 -14 -34 -14 -37 0 -3 -13 -34 -29 -68 -15 -35 -31 -73 -35 -85 -8 -25
-6 -26 -73 33 -24 20 -43 44 -43 52 0 17 48 149 60 167 4 6 13 33 20 60 7 28
21 68 31 90 10 22 21 54 24 70 4 17 11 39 15 50 19 43 81 285 76 294 -4 5 -2
12 4 16 6 4 8 11 4 16 -3 5 -1 16 5 23 13 16 41 145 41 191 0 19 5 37 10 40 6
4 8 16 5 26 -4 11 -2 26 4 33 6 7 15 53 21 102 33 295 41 406 36 468 -4 38 -2
74 3 80 12 14 12 53 8 356 -3 206 -6 235 -20 235 -8 0 -19 4 -23 8 -4 4 0 7 8
7 9 0 18 6 21 13 4 10 -20 18 -87 31 -50 10 -111 24 -136 32 -25 8 -110 28
-190 45 -165 35 -194 41 -270 63 -30 9 -66 16 -81 16 -14 0 -29 4 -35 10 -11
11 -215 70 -244 70 -10 0 -22 5 -25 10 -4 6 -10 8 -15 5 -5 -3 -17 -1 -27 4
-10 5 -58 23 -108 39 -395 130 -506 167 -615 207 -325 119 -410 152 -505 194
-73 33 -75 33 -220 -25 -77 -31 -169 -67 -205 -79 -36 -13 -90 -33 -120 -45
-58 -23 -250 -89 -415 -145 -55 -18 -113 -40 -130 -49 -16 -9 -36 -16 -44 -16
-8 0 -51 -11 -95 -25 -286 -88 -354 -108 -471 -140 -71 -20 -209 -53 -305 -75
-96 -21 -197 -46 -225 -54 -27 -8 -81 -20 -120 -27 -38 -6 -91 -18 -118 -26
l-47 -14 0 -277 c0 -285 12 -567 30 -707 5 -44 15 -118 21 -165 13 -106 93
-505 125 -625 35 -135 144 -457 172 -511 5 -10 12 -36 16 -56 6 -32 4 -38 -11
-38 -9 0 -32 -15 -51 -32 -32 -32 -34 -32 -45 -13 -7 11 -25 52 -40 90 -15 39
-32 79 -38 90 -37 76 -138 411 -183 605 -21 94 -50 240 -71 365 -14 77 -36
247 -45 335 -5 58 -13 116 -16 130 -3 14 -7 83 -9 155 -18 772 -18 770 -4 781
14 11 175 52 234 59 17 2 50 9 75 15 25 6 79 17 120 25 84 15 333 74 450 106
41 12 95 26 120 31 25 6 50 15 57 20 6 5 27 11 45 13 41 6 189 54 203 66 5 5
20 9 35 9 14 0 63 14 110 30 47 17 96 33 110 36 21 4 202 63 250 81 8 3 84 29
168 59 85 29 159 58 166 63 7 6 15 8 18 5 4 -3 28 4 55 15 26 11 80 32 118 46
39 15 106 42 150 60 96 40 104 41 175 14z m305 -629 c219 -62 442 -238 557
-440 84 -147 98 -260 99 -753 0 -315 -1 -330 -21 -373 -36 -74 -106 -127 -207
-159 -48 -15 -110 -34 -136 -42 -58 -18 -112 -69 -140 -132 -17 -39 -20 -71
-23 -225 -3 -179 -3 -179 -30 -207 -15 -15 -41 -31 -58 -34 -17 -4 -39 -9 -48
-11 -16 -5 -18 7 -20 113 l-3 118 -67 3 -68 3 -1 -108 c-1 -59 -1 -111 0 -115
1 -10 -59 -20 -100 -16 l-34 3 -5 120 -5 120 -64 -3 c-35 -1 -67 -4 -69 -7 -3
-3 -5 -55 -3 -115 l2 -110 -70 0 -70 0 -6 43 c-3 23 -4 71 -2 107 3 37 1 70
-5 78 -11 13 -57 16 -106 6 l-31 -6 -3 -117 -3 -116 -33 3 c-44 3 -88 27 -104
55 -8 14 -15 87 -18 212 -5 169 -8 195 -28 232 -24 47 -63 81 -101 89 -14 3
-40 12 -57 20 -17 7 -59 20 -93 28 -105 24 -185 84 -218 163 -18 44 -35 241
-22 265 5 9 9 151 9 315 1 294 4 328 38 438 66 214 306 448 536 525 53 17 117
36 144 40 67 13 638 4 687 -10z m-1646 -571 c-9 -6 6 -9 43 -9 31 0 59 -4 63
-10 3 -5 1 -38 -6 -74 -15 -87 -4 -84 -281 -71 -196 9 -201 7 -218 -92 -8 -49
-10 -314 -8 -947 l3 -880 32 -8 c17 -4 768 -7 1670 -6 l1638 3 3 952 2 952
-24 16 c-21 14 -59 16 -243 16 -120 -1 -223 2 -229 6 -6 5 -14 31 -17 58 -4
28 -10 61 -13 74 -6 21 -5 23 12 15 10 -5 125 -10 254 -11 129 -1 250 -5 268
-8 46 -8 119 -77 132 -124 10 -39 15 -2044 5 -2062 -4 -6 -679 -9 -1820 -9
l-1815 0 -2 998 c-2 548 0 1019 4 1047 4 27 12 51 18 53 5 2 10 8 10 13 0 13
37 51 79 79 27 19 52 24 140 30 154 10 317 10 300 -1z m84 4 c-7 -2 -21 -2
-30 0 -10 3 -4 5 12 5 17 0 24 -2 18 -5z m3381 -2369 c42 -16 -2 -156 -66
-208 -18 -15 -41 -34 -51 -42 -15 -12 -304 -14 -2068 -14 l-2051 0 -49 27
c-77 42 -118 118 -111 206 2 16 48 17 823 17 575 0 818 -3 814 -11 -11 -17 16
-69 44 -83 21 -11 121 -14 491 -14 256 1 485 3 510 7 42 6 47 10 68 54 l24 47
806 1 c460 0 798 4 787 9 -16 7 -17 9 -3 9 9 1 23 -2 32 -5z m-3559 -572 c237
-231 521 -441 855 -630 109 -62 356 -188 425 -217 22 -9 48 -21 57 -26 30 -15
44 -11 181 57 382 192 623 339 873 536 59 46 119 92 134 103 29 22 93 80 211
193 l77 73 68 -2 c132 -5 132 1 -2 -135 -105 -107 -260 -245 -365 -325 -227
-175 -394 -285 -620 -411 -160 -90 -505 -258 -528 -258 -29 0 -83 24 -291 127
-504 250 -890 516 -1227 848 -79 77 -143 142 -143 145 0 3 46 7 103 8 l102 2
90 -88z"/>
<path d="M5250 6418 c-18 -40 -57 -121 -86 -181 -30 -61 -50 -115 -47 -126 3
-12 16 -21 36 -24 18 -3 58 -12 90 -20 32 -8 60 -11 63 -6 15 26 3 421 -14
427 -5 1 -24 -30 -42 -70z"/>
<path d="M2950 3877 c-56 -37 -72 -68 -81 -154 -9 -86 -2 -231 12 -280 17 -55
112 -130 174 -137 12 -1 27 -6 35 -11 26 -16 113 -23 165 -14 110 20 231 106
284 202 24 42 28 122 8 148 -7 9 -55 36 -107 61 -480 232 -442 218 -490 185z"/>
<path d="M4390 3890 c-8 -4 -49 -24 -90 -43 -41 -19 -109 -50 -150 -70 -41
-19 -118 -55 -171 -80 -115 -54 -139 -76 -139 -129 0 -58 21 -98 90 -171 107
-115 192 -142 345 -109 147 32 193 59 234 141 23 45 24 47 25 231 1 141 -10
175 -74 217 -35 25 -46 27 -70 13z"/>
<path d="M3654 3312 c-7 -4 -37 -50 -69 -102 -46 -76 -58 -105 -62 -150 -4
-46 -2 -58 15 -73 26 -23 102 -25 134 -3 30 21 60 20 91 -4 29 -23 74 -26 100
-6 11 8 20 33 23 62 5 41 2 57 -21 99 -15 28 -35 59 -44 70 -10 11 -23 33 -30
50 -7 16 -22 36 -34 44 -24 17 -85 25 -103 13z"/>
</g>
</svg>
