<?xml version="1.0" standalone="no"?>
<!DOCTYPE svg PUBLIC "-//W3C//DTD SVG 20010904//EN"
 "http://www.w3.org/TR/2001/REC-SVG-20010904/DTD/svg10.dtd">
<svg version="1.0" xmlns="http://www.w3.org/2000/svg"
 width="1080.000000pt" height="1080.000000pt" viewBox="0 0 1080.000000 1080.000000"
 preserveAspectRatio="xMidYMid meet">

<g transform="translate(0.000000,1080.000000) scale(0.100000,-0.100000)"
fill="#000000" stroke="none">
<path d="M2133 9372 c-18 -8 -33 -19 -33 -24 0 -4 -7 -8 -15 -8 -19 0 -69 -75
-62 -92 4 -8 8 -5 12 10 8 24 25 30 25 9 0 -18 -21 -37 -41 -37 -19 0 -31 -23
-23 -44 3 -8 1 -17 -5 -21 -13 -8 -15 -5241 -2 -5320 5 -27 14 -51 20 -53 6
-2 11 -14 11 -26 0 -25 62 -90 75 -79 4 5 5 3 2 -3 -4 -7 1 -18 10 -25 15 -12
16 -12 10 5 -6 14 -4 17 9 12 8 -3 18 -6 21 -6 3 0 -1 -8 -8 -17 -12 -15 -12
-16 4 -10 11 4 17 2 17 -8 0 -10 11 -15 34 -15 19 0 38 -4 41 -10 4 -7 257
-10 726 -10 712 0 719 0 719 20 0 11 7 20 15 20 8 0 15 5 15 10 0 6 5 10 10
10 19 0 10 -21 -12 -30 -23 -9 -23 -9 2 -9 16 0 34 11 50 32 l25 31 -1 231
c-1 126 -3 236 -5 243 -1 6 -11 12 -22 12 -16 0 -17 3 -8 14 9 11 9 16 -1 23
-48 30 -91 32 -577 33 -452 1 -496 3 -508 18 -13 15 -14 14 -8 -11 5 -25 3
-28 -17 -25 -13 2 -28 15 -36 31 -8 16 -21 27 -34 27 -14 0 -18 5 -14 16 3 9
7 37 7 62 l2 47 7 -40 c4 -22 9 932 11 2120 l4 2160 5 -2165 c3 -1191 6 -2149
8 -2130 3 46 22 20 22 -31 0 -25 4 -36 15 -36 11 0 13 5 8 16 -4 9 -9 999 -10
2200 -2 1648 -6 2186 -14 2192 -7 4 -9 14 -6 24 4 9 11 13 17 10 5 -3 10 3 10
14 0 16 6 21 26 21 16 0 23 -4 18 -12 -5 -8 0 -9 17 -3 13 5 242 10 508 12
541 4 534 3 565 72 15 33 17 68 14 269 l-3 231 -29 30 -30 31 -780 -1 c-692
-1 -785 -3 -813 -17z m1517 -11 c-19 -3 -365 -6 -767 -5 -604 0 -733 -2 -733
-13 0 -7 -3 -13 -7 -13 -24 -1 -58 -45 -64 -83 l-6 -42 -2 43 c0 24 -6 42 -12
42 -8 0 -8 5 1 15 7 8 17 15 22 15 6 0 23 11 40 25 l30 25 766 -1 c422 -1 751
-4 732 -8z m77 3 c-3 -3 -12 -4 -19 -1 -8 3 -5 6 6 6 11 1 17 -2 13 -5z m-35
-36 c-7 -7 -12 -8 -12 -2 0 14 12 26 19 19 2 -3 -1 -11 -7 -17z m29 -27 c-15
-12 -22 -24 -18 -35 5 -13 3 -14 -13 -3 -26 16 -27 51 -1 44 10 -2 25 -1 32 4
25 16 25 9 0 -10z m49 -207 c0 -153 -3 -223 -10 -219 -7 4 -9 79 -6 223 5 241
4 222 11 222 3 0 5 -102 5 -226z m-1610 207 c0 -5 -7 -12 -16 -15 -24 -9 -28
-7 -14 9 14 17 30 20 30 6z m-130 -101 c-13 -8 -13 -10 1 -10 21 0 31 -47 16
-72 -23 -35 -37 -21 -37 37 0 46 3 55 18 55 14 0 15 -2 2 -10z m1690 -35 c0
-14 -4 -25 -10 -25 -11 0 -14 33 -3 43 11 11 13 8 13 -18z m0 -155 c0 -67 -4
-110 -10 -110 -6 0 -10 43 -10 110 0 67 4 110 10 110 6 0 10 -43 10 -110z
m-1690 -5064 c-7 -7 -10 842 -10 2555 0 1411 3 2569 8 2573 4 4 8 -1146 10
-2555 1 -1702 -1 -2566 -8 -2573z m600 4930 c0 6 6 11 13 11 8 0 14 -6 14 -13
0 -7 -6 -10 -13 -7 -12 5 -30 -14 -21 -23 9 -10 47 16 47 31 0 8 7 15 15 15
19 0 19 -5 -1 -35 -10 -15 -21 -22 -31 -18 -11 4 -14 2 -9 -5 4 -7 1 -12 -7
-12 -8 0 -20 13 -25 29 -11 31 -4 50 10 29 4 -8 8 -8 8 -2z m88 -8 c-2 -9 8
-12 29 -11 17 2 35 -2 38 -8 5 -7 -10 -9 -44 -7 -54 3 -59 6 -39 26 15 15 19
15 16 0z m1046 -31 c-13 -40 -48 -61 -57 -34 -3 9 -7 9 -20 -1 -9 -8 -31 -12
-54 -9 l-38 4 43 1 c30 1 42 6 40 15 -4 9 -100 13 -419 17 -228 4 -416 7 -418
8 -22 11 63 13 405 12 220 -1 412 -3 427 -5 15 -2 33 2 39 9 7 7 22 10 35 8
19 -4 22 -9 17 -25z m-944 13 c0 -5 -5 -10 -11 -10 -5 0 -7 5 -4 10 3 6 8 10
11 10 2 0 4 -4 4 -10z m-236 -82 c3 -16 3 -28 -2 -28 -5 0 -9 6 -9 13 0 6 -4
26 -7 42 -5 20 -4 25 2 15 5 -8 12 -27 16 -42z m116 22 c0 -5 -2 -10 -4 -10
-3 0 -8 5 -11 10 -3 6 -1 10 4 10 6 0 11 -4 11 -10z m53 3 c-7 -2 -19 -2 -25
0 -7 3 -2 5 12 5 14 0 19 -2 13 -5z m126 -19 c2 -2 -21 -4 -52 -4 -31 0 -57 4
-57 10 0 8 99 3 109 -6z m821 6 c0 -6 -25 -9 -57 -8 l-58 1 50 7 c28 4 53 8
58 8 4 1 7 -2 7 -8z m-955 -10 c-3 -5 -13 -10 -21 -10 -8 0 -14 5 -14 10 0 6
9 10 21 10 11 0 17 -4 14 -10z m808 3 c-7 -2 -21 -2 -30 0 -10 3 -4 5 12 5 17
0 24 -2 18 -5z m-973 -76 c0 -12 -5 -29 -10 -37 -7 -11 -10 -3 -10 28 0 26 4
41 10 37 6 -3 10 -16 10 -28z m-13 -119 c-2 -13 -4 -3 -4 22 0 25 2 35 4 23 2
-13 2 -33 0 -45z m40 -3151 c-1 -573 -2 -101 -2 1048 0 1150 1 1618 2 1042 2
-577 2 -1517 0 -2090z m1123 -1228 c0 -6 -9 -9 -19 -6 -13 3 -21 -1 -24 -14
-5 -18 -23 -19 -446 -19 -287 0 -441 3 -441 10 0 7 153 10 440 10 384 0 440 2
440 15 0 9 9 15 25 15 14 0 25 -5 25 -11z m-3 -35 c-3 -3 -12 -4 -19 -1 -8 3
-5 6 6 6 11 1 17 -2 13 -5z m40 -46 c-3 -8 -6 -5 -6 6 -1 11 2 17 5 13 3 -3 4
-12 1 -19z m-53 -30 c10 -39 7 -318 -4 -318 -6 0 -10 56 -10 148 0 95 -4 152
-11 159 -11 11 -5 33 10 33 5 0 11 -10 15 -22z m56 -176 c0 -91 -3 -162 -7
-158 -5 4 -10 79 -13 165 -4 122 -2 158 8 158 9 0 12 -40 12 -165z m-1715 -17
c0 -17 -6 -37 -13 -47 -11 -14 -11 -21 4 -50 15 -30 18 -31 25 -13 6 16 8 17
8 3 1 -9 -7 -22 -16 -28 -16 -9 -15 -10 5 -5 25 7 31 -10 6 -19 -21 -8 -34 1
-34 25 0 11 -7 31 -16 44 -13 20 -14 28 -5 39 9 11 9 19 0 34 -15 25 -4 55 18
50 12 -2 18 -13 18 -33z m15 -70 c0 -8 -4 -15 -10 -15 -5 0 -10 7 -10 15 0 8
5 15 10 15 6 0 10 -7 10 -15z m134 -80 c-4 -8 -8 -15 -10 -15 -2 0 -4 7 -4 15
0 8 4 15 10 15 5 0 7 -7 4 -15z m31 -4 c-3 -6 -11 -11 -16 -11 -5 0 -4 6 3 14
14 16 24 13 13 -3z m1477 -20 c18 -17 22 -18 35 -5 20 20 25 18 17 -8 -4 -13
-7 -29 -7 -35 0 -17 -24 -17 -29 -1 -3 9 -10 8 -22 -5 -10 -10 -21 -15 -25
-12 -3 4 5 15 19 25 14 11 19 20 12 20 -17 0 -43 26 -35 34 9 9 12 8 35 -13z
m-1492 -7 c0 -2 -14 -4 -31 -4 -16 0 -28 4 -25 9 5 8 56 3 56 -5z m-89 -1
c-11 -4 -11 -7 0 -14 7 -4 11 -10 8 -13 -2 -3 -11 -1 -18 3 -15 10 -6 31 12
30 8 0 7 -3 -2 -6z m39 -34 c0 -7 10 -9 25 -7 14 3 28 1 31 -3 3 -5 -4 -9 -15
-9 -14 0 -19 -5 -15 -15 4 -10 0 -15 -11 -15 -11 0 -15 5 -12 14 3 8 -1 17 -9
20 -16 6 -19 26 -4 26 6 0 10 -5 10 -11z m67 -45 c-3 -3 -12 -4 -19 -1 -8 3
-5 6 6 6 11 1 17 -2 13 -5z"/>
<path d="M3690 4091 c0 -6 4 -13 10 -16 6 -3 7 1 4 9 -7 18 -14 21 -14 7z"/>
<path d="M2650 8731 c-7 -15 -7 -21 0 -21 12 0 25 28 17 36 -3 3 -10 -4 -17
-15z"/>
<path d="M4149 8205 c-3 -2 -141 -5 -308 -5 -166 -1 -309 -4 -316 -7 -8 -3
-15 -9 -15 -15 0 -5 5 -6 12 -2 6 4 8 3 5 -4 -13 -20 3 -39 31 -35 97 13 112
13 112 -2 0 -8 -7 -15 -15 -15 -8 0 -15 -3 -15 -8 0 -7 -50 -6 -110 1 -21 3
-24 8 -22 30 2 15 -1 27 -7 27 -6 0 -11 -7 -11 -15 0 -8 -7 -15 -15 -15 -18 0
-49 -45 -40 -60 3 -5 1 -10 -4 -10 -8 0 -11 -453 -11 -1506 0 -1001 3 -1503
10 -1499 6 3 10 25 10 49 0 23 5 47 11 53 8 8 8 13 0 17 -19 12 -12 26 12 26
18 0 19 -2 7 -11 -11 -8 -12 -12 -3 -16 9 -3 10 -10 3 -24 -6 -11 -7 -19 -2
-19 15 0 34 28 27 40 -3 5 7 22 24 36 17 14 31 33 31 41 0 13 -3 13 -15 3 -13
-11 -14 -10 -9 4 4 11 13 15 25 11 13 -4 21 -1 26 12 3 10 13 26 21 35 13 16
12 19 -9 28 -22 10 -21 10 9 6 24 -4 32 -2 32 9 0 8 5 15 10 15 6 0 10 8 10
18 -1 14 -4 13 -21 -7 -22 -27 -39 -20 -21 9 6 10 8 22 3 25 -5 3 -7 15 -5 28
2 12 2 17 -2 10 -3 -7 -12 -9 -21 -6 -11 4 -14 2 -9 -5 4 -7 2 -12 -4 -12 -9
0 -9 42 -1 90 1 3 6 -2 11 -10 6 -10 10 -11 10 -2 0 22 30 12 40 -14 14 -36
12 -43 -5 -14 -16 28 -21 19 -5 -10 6 -11 17 -17 25 -14 8 4 15 1 15 -6 0 -22
17 0 23 30 4 16 11 30 17 30 7 0 9 -9 5 -22 -7 -22 -6 -22 8 -4 13 18 13 56
-2 54 -39 -5 -42 22 -4 40 15 6 32 12 39 12 7 0 15 6 17 13 3 7 6 5 6 -5 1
-10 6 -18 11 -18 6 0 13 8 17 18 3 9 27 46 53 82 26 36 45 70 43 77 -2 6 6 14
17 18 17 5 20 12 16 31 -5 19 -3 22 11 18 12 -4 14 -3 6 3 -6 4 -15 21 -18 36
-7 26 -25 38 -25 17 0 -5 -4 -10 -10 -10 -19 0 -10 38 10 43 11 3 20 12 20 21
0 10 8 16 23 15 12 0 16 -3 10 -6 -22 -8 -15 -36 7 -30 11 3 18 1 15 -3 -9
-14 16 -23 28 -11 8 8 7 11 -3 11 -10 1 -6 8 10 23 14 12 32 31 40 41 14 18
13 19 -9 13 -29 -7 -51 8 -51 35 0 12 6 18 18 16 11 -2 17 3 16 15 -2 21 15
18 30 -6 8 -13 7 -20 -4 -28 -13 -9 -13 -10 0 -6 8 2 19 20 23 41 8 30 13 36
31 34 14 -2 24 4 31 20 5 12 13 22 16 22 4 0 5 10 1 22 -4 17 -2 20 11 15 12
-4 22 3 34 26 9 18 16 37 15 44 -2 7 6 17 17 22 20 11 91 105 91 121 0 6 -13
10 -30 10 -16 0 -30 -4 -30 -9 0 -5 9 -7 20 -4 23 6 27 -12 5 -21 -8 -3 -15
-15 -15 -26 0 -23 -10 -26 -29 -7 -8 7 -11 7 -8 1 10 -17 -34 -26 -52 -11 -14
11 -14 10 -2 -5 11 -14 11 -21 1 -33 -7 -8 -16 -12 -20 -10 -13 8 -9 195 4
203 19 12 50 9 69 -7 15 -13 19 -12 31 4 9 13 15 15 20 6 4 -6 11 -9 16 -6 4
3 6 -3 3 -14 -3 -10 0 -22 6 -25 6 -4 11 0 11 8 0 9 4 16 9 16 15 0 23 38 13
56 -14 26 -4 53 19 47 13 -4 19 -14 19 -34 0 -16 5 -29 10 -29 6 0 10 14 10
30 0 17 -4 30 -10 30 -6 0 -10 277 -10 776 1 427 -2 779 -4 782 -3 3 -8 -3
-12 -12 -3 -9 -16 -15 -28 -15 -15 1 -16 3 -5 6 15 3 28 30 29 55 0 4 -8 12
-18 17 -14 7 -19 6 -19 -4 0 -7 7 -11 15 -8 12 5 12 2 1 -18 -7 -14 -14 -19
-17 -11 -2 8 -24 12 -63 12 -32 0 -59 4 -59 9 0 6 -124 10 -315 11 -308 0
-361 4 -334 21 7 4 18 4 24 -1 13 -11 705 -18 698 -7 -2 4 6 7 19 7 22 1 22 1
4 12 -15 8 -21 8 -24 0 -2 -7 -21 -11 -45 -11 -28 1 -33 3 -17 6 44 8 40 18
-9 21 -26 1 -50 0 -52 -3z m-111 -22 c-82 -2 -214 -2 -295 0 -82 1 -15 3 147
3 162 0 229 -2 148 -3z m-548 -69 c0 -8 -5 -12 -10 -9 -6 4 -8 11 -5 16 9 14
15 11 15 -7z m667 1 c-5 -14 -469 -14 -474 0 -2 6 82 10 237 10 162 1 239 -3
237 -10z m21 -40 c-3 -3 -9 2 -12 12 -6 14 -5 15 5 6 7 -7 10 -15 7 -18z
m-718 -64 c0 -44 5 -83 10 -86 6 -3 9 -14 9 -23 -1 -16 -2 -16 -6 0 -2 10 -10
15 -19 11 -11 -4 -14 8 -15 58 -1 35 0 68 1 74 1 5 2 18 3 27 1 10 5 18 9 18
4 0 8 -36 8 -79z m57 73 c-3 -3 -12 -4 -19 -1 -8 3 -5 6 6 6 11 1 17 -2 13 -5z
m0 -111 c-2 -16 -4 -3 -4 27 0 30 2 43 4 28 2 -16 2 -40 0 -55z m-60 -2075
c-1 -365 -2 -67 -2 662 0 729 1 1027 2 663 2 -365 2 -961 0 -1325z m719 310
c-9 -12 -16 -17 -16 -10 0 14 23 42 29 37 1 -2 -4 -14 -13 -27z m-54 -57 c22
12 24 3 3 -18 -19 -18 -45 -10 -45 14 0 13 3 14 12 5 7 -7 17 -8 30 -1z m-48
-46 c-4 -8 -8 -15 -10 -15 -2 0 -4 7 -4 15 0 8 4 15 10 15 5 0 7 -7 4 -15z
m-191 -119 c13 5 17 0 17 -20 0 -21 -5 -26 -24 -26 -16 0 -27 7 -31 20 -8 24
4 48 15 31 3 -7 14 -9 23 -5z m-18 -167 c8 -25 1 -34 -20 -26 -19 8 -20 47 -1
47 8 0 18 -9 21 -21z m-13 -102 c-9 -20 -25 -39 -34 -42 -10 -4 -18 -15 -18
-26 0 -10 -7 -19 -15 -19 -23 0 -18 16 13 42 16 13 37 38 47 55 25 42 29 37 7
-10z m-152 -46 c0 -6 -4 -13 -10 -16 -5 -3 -10 1 -10 9 0 9 5 16 10 16 6 0 10
-4 10 -9z m0 -61 c0 -5 -4 -10 -10 -10 -5 0 -10 5 -10 10 0 6 5 10 10 10 6 0
10 -4 10 -10z m-104 -192 c4 -7 4 -10 -1 -6 -10 9 -35 -16 -35 -36 0 -9 -5
-15 -12 -13 -6 1 -14 -6 -16 -15 -2 -13 1 -16 12 -12 18 7 23 -20 7 -31 -16
-9 -32 33 -29 73 3 32 7 38 33 43 17 4 31 7 32 8 1 0 5 -5 9 -11z"/>
<path d="M4348 6461 c-19 -19 -24 -41 -9 -41 5 0 16 14 25 30 16 33 10 38 -16
11z"/>
<path d="M4176 6405 c-6 -18 2 -45 15 -45 13 0 11 17 -3 24 -10 5 -10 7 0 12
14 7 16 24 3 24 -5 0 -11 -7 -15 -15z"/>
<path d="M4240 6366 c0 -9 5 -16 10 -16 6 0 10 4 10 9 0 6 -4 13 -10 16 -5 3
-10 -1 -10 -9z"/>
<path d="M4086 6064 c-9 -24 -2 -26 12 -4 7 11 8 20 3 20 -5 0 -12 -7 -15 -16z"/>
<path d="M3950 5889 c0 -11 5 -17 10 -14 6 3 10 13 10 21 0 8 -4 14 -10 14 -5
0 -10 -9 -10 -21z"/>
<path d="M3723 5574 c-7 -19 11 -39 26 -30 16 10 13 33 -4 40 -9 3 -18 -1 -22
-10z"/>
<path d="M3668 5443 c-21 -5 -24 -23 -4 -23 8 0 16 7 20 15 3 8 4 14 3 14 -1
-1 -10 -3 -19 -6z"/>
<path d="M2607 4259 c4 -13 8 -18 11 -10 2 7 -1 18 -6 23 -8 8 -9 4 -5 -13z"/>
<path d="M2630 4245 c0 -8 4 -15 10 -15 5 0 7 7 4 15 -4 8 -8 15 -10 15 -2 0
-4 -7 -4 -15z"/>
<path d="M6047 2743 c-4 -3 -7 -141 -7 -305 l0 -298 24 0 24 0 4 143 c4 178
18 213 92 238 37 12 57 14 87 7 70 -18 74 -29 77 -219 l3 -169 25 0 24 0 0
169 c0 159 -1 170 -23 202 -28 42 -84 63 -147 55 -48 -5 -110 -32 -110 -47 0
-5 -7 -9 -15 -9 -12 0 -15 20 -15 120 0 110 -2 120 -18 120 -10 0 -22 -3 -25
-7z"/>
<path d="M7797 2743 c-4 -3 -7 -141 -7 -305 l0 -298 25 0 c25 0 25 1 25 78 0
69 3 81 23 100 13 12 28 22 34 22 6 0 44 -45 85 -100 66 -89 76 -99 105 -100
l33 0 -91 120 c-77 102 -89 123 -78 136 7 8 43 48 80 87 65 69 67 72 42 75
-29 4 -66 -28 -161 -140 -31 -36 -60 -64 -64 -62 -5 3 -8 93 -8 200 0 181 -1
194 -18 194 -10 0 -22 -3 -25 -7z"/>
<path d="M1440 2704 c0 -8 73 -283 115 -434 7 -25 18 -64 24 -87 10 -38 15
-43 40 -43 24 0 30 5 39 38 5 20 27 91 47 157 20 66 47 157 59 203 12 46 26
83 31 83 9 0 18 -24 69 -196 15 -49 31 -101 36 -115 5 -14 18 -58 30 -97 20
-69 23 -73 50 -73 26 0 30 5 40 43 6 23 15 58 20 77 18 62 107 394 114 423 6
24 4 27 -19 27 -27 0 -35 -12 -53 -90 -45 -183 -96 -386 -99 -390 -7 -8 -23
24 -29 60 -3 19 -9 44 -14 55 -5 11 -20 61 -35 110 -14 50 -30 101 -35 115 -5
14 -16 51 -26 83 -16 55 -18 57 -50 57 -22 0 -34 -5 -34 -13 0 -8 -8 -40 -19
-73 -10 -32 -26 -84 -35 -114 -8 -30 -27 -93 -41 -141 -14 -47 -25 -97 -25
-112 0 -16 -5 -27 -14 -27 -9 0 -19 26 -31 78 -9 42 -20 88 -25 102 -4 14 -16
59 -26 100 -9 41 -23 94 -31 118 -7 23 -13 52 -13 62 0 16 -7 20 -30 20 -16 0
-30 -3 -30 -6z"/>
<path d="M4672 2688 c3 -21 9 -23 93 -28 l90 -5 3 -257 2 -258 25 0 25 0 2
258 3 257 93 3 c90 3 92 3 92 27 l0 25 -216 0 -215 0 3 -22z"/>
<path d="M2379 2564 c-45 -8 -105 -68 -123 -123 -21 -66 -20 -119 5 -185 38
-103 130 -146 244 -115 147 41 181 295 53 393 -36 26 -118 40 -179 30z m133
-51 c46 -27 68 -80 68 -163 0 -80 -14 -114 -60 -154 -24 -20 -43 -26 -77 -26
-94 0 -143 62 -143 179 0 122 46 180 143 181 22 0 52 -8 69 -17z"/>
<path d="M2895 2554 c-16 -8 -38 -22 -47 -31 -16 -14 -18 -14 -27 11 -7 16
-18 26 -31 26 -19 0 -20 -6 -20 -210 l0 -210 25 0 25 0 0 140 c0 203 25 250
133 250 34 0 50 -6 71 -26 l26 -27 0 -168 0 -169 30 0 30 0 -1 148 c-2 165 7
199 61 227 40 20 103 19 130 -3 30 -24 39 -81 40 -239 l0 -133 25 0 25 0 0
159 c0 212 -17 253 -110 266 -61 8 -115 -7 -152 -42 l-28 -27 -16 23 c-34 48
-130 66 -189 35z"/>
<path d="M3635 2558 c-45 -16 -65 -37 -91 -96 -46 -101 -23 -243 45 -291 59
-41 154 -53 232 -29 30 9 39 16 39 34 0 22 -1 22 -47 7 -56 -17 -130 -12 -172
13 -37 22 -59 60 -63 109 l-3 40 153 3 152 3 0 31 c0 136 -117 221 -245 176z
m119 -38 c46 -17 92 -129 54 -131 -7 0 -60 0 -117 0 -122 0 -131 6 -99 70 31
63 94 87 162 61z"/>
<path d="M4146 2556 c-22 -8 -43 -22 -48 -30 -13 -23 -36 -19 -40 7 -2 14 -11
23 -25 25 l-23 3 0 -210 0 -211 25 0 25 0 0 138 c1 121 3 142 23 182 18 37 30
48 68 62 63 23 123 8 150 -36 16 -27 19 -52 19 -188 l0 -158 25 0 25 0 0 160
c0 175 -9 216 -53 245 -36 23 -123 29 -171 11z"/>
<path d="M5275 2555 c-67 -37 -99 -88 -110 -177 -14 -115 40 -212 132 -237 82
-23 204 -3 211 34 4 16 -1 17 -45 9 -83 -15 -147 -10 -182 15 -40 29 -63 73
-59 114 l3 32 148 3 147 3 0 45 c0 98 -60 163 -157 171 -42 3 -66 0 -88 -12z
m137 -43 c24 -14 35 -31 51 -83 11 -34 -7 -40 -124 -41 -113 -1 -114 -1 -117
23 -4 33 36 90 78 111 36 19 67 16 112 -10z"/>
<path d="M5762 2563 c-12 -3 -40 -21 -61 -41 -47 -45 -76 -130 -69 -202 6 -64
44 -138 82 -161 40 -24 108 -34 165 -23 38 7 47 13 49 33 3 20 1 23 -15 17
-10 -4 -39 -10 -64 -13 -62 -7 -109 16 -138 68 -20 35 -23 52 -19 122 3 88 19
123 67 149 24 13 82 16 136 8 25 -4 31 -1 33 16 3 18 -4 22 -35 27 -41 7 -94
7 -131 0z"/>
<path d="M6697 2560 c-16 -5 -37 -18 -47 -30 -21 -24 -40 -19 -40 11 0 13 -7
19 -23 19 l-24 0 -2 -211 -1 -210 26 3 27 3 -2 115 c-3 180 16 237 89 266 36
15 100 1 122 -26 16 -19 18 -43 18 -191 l0 -169 30 0 30 0 0 146 c0 163 9 197
60 228 39 22 78 26 112 9 53 -26 58 -43 58 -221 l0 -163 26 3 26 3 -1 150 c-2
181 -6 207 -38 239 -48 49 -165 46 -216 -6 l-30 -29 -26 25 c-46 43 -107 56
-174 36z"/>
<path d="M7417 2560 c-44 -8 -62 -23 -54 -43 5 -13 11 -13 44 -1 55 19 123 17
152 -5 28 -22 45 -95 26 -114 -7 -7 -43 -14 -81 -15 -115 -4 -164 -27 -191
-90 -54 -128 119 -218 237 -123 40 32 50 31 50 -6 0 -16 6 -23 20 -23 19 0 20
7 20 170 0 193 -8 222 -65 246 -36 15 -95 17 -158 4z m175 -255 c-5 -55 -21
-85 -61 -112 -90 -60 -204 2 -167 91 20 48 65 66 156 63 l75 -2 -3 -40z"/>
<path d="M8308 2553 c-154 -74 -139 -358 21 -412 44 -14 123 -14 172 1 30 8
39 16 39 33 0 22 -1 22 -52 9 -29 -8 -66 -14 -83 -14 -74 0 -145 69 -145 141
l0 39 150 0 150 0 0 43 c-1 55 -30 119 -68 146 -43 30 -135 37 -184 14z m139
-39 c34 -22 55 -59 51 -94 l-3 -31 -115 -1 c-114 -1 -115 -1 -118 23 -4 33 36
90 78 111 36 18 69 16 107 -8z"/>
<path d="M8832 2553 c-18 -9 -41 -27 -52 -40 -23 -30 -40 -22 -40 18 0 22 -5
29 -20 29 -19 0 -20 -7 -20 -210 l0 -210 25 0 25 0 0 134 c0 74 4 146 9 159
23 61 100 108 151 92 16 -5 20 -2 20 19 0 23 -4 26 -32 26 -18 0 -48 -8 -66
-17z"/>
<path d="M9092 2561 c-39 -10 -78 -44 -86 -75 -15 -60 31 -111 137 -150 96
-36 129 -87 88 -137 -17 -21 -27 -24 -93 -24 -40 0 -88 4 -105 9 -27 7 -33 5
-33 -7 0 -26 26 -38 97 -44 126 -10 203 34 203 117 0 53 -36 87 -137 128 -88
36 -116 59 -111 93 7 51 86 73 177 50 35 -9 46 -9 52 1 5 7 3 18 -4 25 -15 16
-141 25 -185 14z"/>
<path d="M3815 1593 c-58 -15 -93 -74 -80 -136 10 -48 40 -73 119 -103 87 -34
116 -61 116 -108 0 -42 -27 -71 -81 -88 -36 -10 -71 -6 -151 18 -13 4 -18 0
-18 -15 0 -24 34 -33 129 -33 112 0 161 38 161 124 0 40 -5 52 -30 77 -17 15
-57 38 -89 50 -89 32 -111 53 -111 106 0 72 30 84 184 72 44 -3 43 20 -1 32
-39 11 -112 13 -148 4z"/>
<path d="M5837 1586 c-97 -35 -137 -102 -137 -227 0 -93 24 -156 74 -193 42
-32 65 -38 146 -38 80 0 110 8 110 28 0 17 -21 18 -72 4 -44 -13 -107 1 -149
31 -95 67 -90 280 8 345 42 28 111 38 163 24 22 -6 45 -8 50 -5 54 33 -111 60
-193 31z"/>
<path d="M4934 1514 c-8 -20 -24 -38 -35 -41 -26 -7 -24 -21 4 -25 21 -3 22
-7 25 -138 2 -121 5 -137 24 -157 17 -18 32 -23 70 -23 26 0 48 5 48 10 0 6
-13 10 -30 10 -17 0 -39 9 -50 20 -19 19 -20 31 -18 148 l3 127 48 3 c26 2 47
7 47 12 0 5 -21 10 -47 12 -48 3 -48 3 -51 41 -4 47 -19 47 -38 1z"/>
<path d="M4205 1473 c-11 -2 -30 -6 -42 -9 -13 -2 -23 -12 -23 -20 0 -12 5
-15 23 -9 86 28 149 11 160 -44 11 -51 2 -58 -81 -65 -102 -9 -151 -41 -152
-98 0 -40 16 -75 41 -89 37 -20 117 -14 151 11 31 23 58 21 58 -6 0 -8 6 -14
13 -11 18 6 16 266 -2 301 -20 37 -80 53 -146 39z m120 -183 c3 -10 1 -37 -5
-59 -20 -74 -115 -106 -165 -56 -28 27 -30 42 -14 79 12 26 44 43 94 49 70 9
84 7 90 -13z"/>
<path d="M4587 1456 c-45 -24 -46 -25 -52 -5 -17 51 -26 0 -28 -154 -2 -153
-1 -167 16 -167 15 0 17 11 17 98 1 124 11 171 47 199 40 32 105 31 138 -2 24
-23 25 -29 25 -160 0 -128 1 -135 20 -135 19 0 20 7 20 135 0 154 -10 186 -61
204 -50 17 -92 13 -142 -13z"/>
<path d="M5245 1475 c-5 -2 -22 -6 -37 -9 -16 -4 -28 -13 -28 -22 0 -12 5 -15
23 -9 12 4 42 10 67 12 61 6 92 -18 94 -72 l1 -40 -75 -7 c-74 -8 -124 -27
-147 -57 -29 -37 -3 -123 39 -137 46 -15 119 -6 144 17 25 23 54 20 54 -6 0
-8 7 -15 15 -15 13 0 15 21 15 129 0 152 -10 188 -56 207 -31 13 -84 17 -109
9z m123 -193 c9 -63 -53 -132 -118 -132 -33 0 -80 38 -80 64 0 61 61 96 160
92 28 -1 36 -5 38 -24z"/>
<path d="M6265 1471 c-11 -5 -29 -18 -39 -30 -26 -28 -46 -27 -46 4 0 16 -6
25 -15 25 -13 0 -15 -26 -15 -170 0 -161 1 -170 19 -170 18 0 20 10 23 125 3
124 3 125 34 156 21 21 44 32 72 36 26 4 42 11 42 19 0 16 -42 18 -75 5z"/>
<path d="M6410 1353 c0 -191 20 -226 127 -225 41 0 64 6 85 22 29 22 48 20 48
-6 0 -8 7 -14 15 -14 13 0 15 26 15 170 0 163 -1 170 -20 170 -19 0 -20 -7
-20 -123 0 -134 -7 -154 -60 -182 -42 -22 -85 -19 -117 9 -28 24 -28 25 -31
160 -3 126 -5 136 -23 136 -18 0 -19 -8 -19 -117z"/>
<path d="M6815 1460 c-4 -6 26 -10 84 -10 50 0 93 -4 96 -10 4 -6 -18 -43 -48
-83 -65 -87 -135 -191 -143 -212 -5 -13 11 -15 120 -15 77 0 126 4 126 10 0 6
-37 10 -90 10 -67 0 -92 4 -96 14 -3 7 22 51 56 97 99 136 130 183 130 196 0
16 -225 19 -235 3z"/>
</g>
</svg>
